<svg fill="#abb9c1" height="512" viewBox="0 0 6.35 6.35" width="512" xmlns="http://www.w3.org/2000/svg"><path d="M2.43.265a.58.58 0 00-.573.53h-.328a.74.74 0 00-.735.734v3.822a.74.74 0 00.735.734H4.82a.74.74 0 00.735-.734V1.529A.74.74 0 004.82.794h-.328a.58.58 0 00-.573-.53zm0 .529h1.49c.032 0 .049.017.049.049v.431c0 .032-.017.049-.049.049H2.43c-.032 0-.05-.017-.05-.049V.843c0-.032.018-.05.05-.05zm-.901.53h.328a.581.581 0 00.573.528h1.49a.58.58 0 00.573-.529h.328a.2.2 0 01.206.206v3.822a.2.2 0 01-.206.205H1.53a.2.2 0 01-.206-.205V1.529a.2.2 0 01.206-.206zm.56 1.058c-.344.025-.317.539.028.529h2.115c.361.008.361-.538 0-.53H2.09zm.002 1.058H2.09c-.345.026-.318.54.027.53h2.115c.361.007.361-.538 0-.53H2.091zM2.09 4.499c-.345.025-.319.54.027.529h2.115c.346-.007.346-.522 0-.53H2.09z"/></svg>