<svg fill="#abb9c1" height="512" viewBox="0 0 6.35 6.35" width="512" xmlns="http://www.w3.org/2000/svg"><path d="M1.323.53a.798.798 0 00-.794.793V3.44c0 .435.359.793.794.793h.794v.795c0 .435.358.793.793.793h2.118a.797.797 0 00.793-.793V2.91a.796.796 0 00-.793-.792h-.794v-.795A.798.798 0 003.44.529zm0 .528H3.44c.151 0 .264.114.264.265v.795H2.91a.796.796 0 00-.793.792v.794h-.794a.258.258 0 01-.265-.264V1.323a.26.26 0 01.265-.265zM2.91 2.645h2.118c.151 0 .264.114.264.265v2.118a.257.257 0 01-.264.264H2.91a.257.257 0 01-.263-.264V2.91c0-.15.112-.265.263-.265z"/></svg>