<svg version="1.1" id="Capa_1" xmlns="http://www.w3.org/2000/svg" x="0" y="0" viewBox="0 0 480 480" xml:space="preserve"><style>.st0{fill:#9babb5}</style><path class="st0" d="M240 0C107.5 0 0 107.5 0 240s107.5 240 240 240c132.5-.1 239.9-107.5 240-240C480 107.5 372.5 0 240 0zm0 464C116.3 464 16 363.7 16 240S116.3 16 240 16c123.7.1 223.9 100.3 224 224 0 123.7-100.3 224-224 224z"/><path class="st0" d="M274.7 162.6c1.7-1.8 1.7-4.7-.1-6.4-1.8-1.7-4.7-1.7-6.4.1l-76.9 76.9c-1.8 1.8-1.8 4.6 0 6.4l76.9 76.9c.8.8 2 1.3 3.2 1.3 1.2 0 2.4-.5 3.2-1.3 1.8-1.8 1.8-4.6 0-6.4l-73.7-73.7 73.7-73.7.1-.1z"/></svg>