<svg version="1.1" id="Capa_1" xmlns="http://www.w3.org/2000/svg" x="0" y="0" viewBox="0 0 496 496" xml:space="preserve"><style>.st0{fill:#85edc1}</style><path class="st0" d="M248 0C111 0 0 111 0 248c.2 136.9 111.1 247.8 248 248 137 0 248-111 248-248S385 0 248 0zm0 480C119.9 480 16 376.1 16 248c.1-128.1 103.9-231.9 232-232 128.1 0 232 103.9 232 232S376.1 480 248 480z"/><path class="st0" d="M346.1 236.1h-87.3v-87.3c0-2.7-2.2-4.9-4.9-4.9s-4.9 2.2-4.9 4.9v87.3h-87.3c-2.7 0-4.9 2.2-4.9 4.9s2.2 4.9 4.9 4.9H249v87.3c0 2.7 2.2 4.9 4.9 4.9s4.9-2.2 4.9-4.9v-87.3h87.3c2.7 0 4.9-2.2 4.9-4.9s-2.2-4.9-4.9-4.9z"/></svg>