<svg version="1.1" id="Capa_1" xmlns="http://www.w3.org/2000/svg" x="0" y="0" viewBox="0 0 495.8 495.8" xml:space="preserve"><style>.st0{fill:#85edc1}</style><path class="st0" d="M247.9 0C111 0 0 111 0 247.9c.1 136.9 111 247.8 247.9 247.9 136.9 0 247.9-111 247.9-247.9S384.8 0 247.9 0zm0 474.5C122.8 474.5 21.3 373 21.3 247.9c.2-125.1 101.5-226.4 226.6-226.6 125.1 0 226.6 101.4 226.6 226.6S373 474.5 247.9 474.5z"/><path class="st0" d="M303.3 300.5L252.9 351l-50.7-50.5-11.6 11.7 62.3 62.3 61.9-62.3zm-54.4-175.1l-62.4 62.5 11.7 11.5 50.7-50.5 50.4 50.5 11.7-11.5z"/></svg>