<svg fill="#85edc1" xmlns="http://www.w3.org/2000/svg" viewBox="0 0 512 512"><path d="M256 176c-44.113 0-80 35.888-80 80s35.888 80 80 80 80-35.888 80-80-35.887-80-80-80zm0 120c-22.056 0-40-17.944-40-40s17.944-40 40-40 40 17.944 40 40-17.944 40-40 40z"/><path d="M502.164 315.637l-51.788-39.683a188.53 188.53 0 000-39.907l51.788-39.683c8.029-6.152 10.201-17.33 5.059-26.041l-50.152-84.978c-4.996-8.466-15.405-12.046-24.553-8.443l-61.445 24.2a195.466 195.466 0 00-35.904-20.341l-9.224-63.63C324.519 7.296 316.089 0 306.152 0H205.848c-9.937 0-18.367 7.296-19.792 17.132l-9.224 63.63a195.524 195.524 0 00-35.904 20.341l-61.445-24.2c-9.15-3.604-19.557-.023-24.553 8.443L4.777 170.323c-5.141 8.711-2.969 19.889 5.059 26.041l51.789 39.682a188.53 188.53 0 000 39.907L9.837 315.636c-8.029 6.152-10.201 17.33-5.059 26.041l50.151 84.978c4.996 8.466 15.404 12.046 24.553 8.443l61.446-24.199a195.504 195.504 0 0035.903 20.34l9.224 63.63c1.426 9.835 9.856 17.131 19.793 17.131h100.304c9.937 0 18.367-7.296 19.793-17.13l9.224-63.63a195.446 195.446 0 0035.903-20.34l61.446 24.199c9.149 3.603 19.557.022 24.553-8.443l50.152-84.978c5.141-8.711 2.969-19.889-5.059-26.041zm-70.867 75.989l-56.047-22.073a20.003 20.003 0 00-19.93 3.077 155.805 155.805 0 01-45.114 25.515 20 20 0 00-12.968 15.93L288.842 472h-65.685l-8.395-57.925a20 20 0 00-12.968-15.93 155.85 155.85 0 01-45.114-25.515 20.004 20.004 0 00-19.93-3.077l-56.047 22.073-32.471-55.019 46.96-35.984a20 20 0 007.545-19.274 149.029 149.029 0 010-50.699 20 20 0 00-7.545-19.274l-46.96-35.984 32.471-55.019 56.047 22.073a19.998 19.998 0 0019.93-3.077 155.85 155.85 0 0145.114-25.514 20 20 0 0012.968-15.93L223.158 40h65.685l8.395 57.925a20 20 0 0012.968 15.93 155.85 155.85 0 0145.114 25.514 19.999 19.999 0 0019.93 3.077l56.047-22.073 32.47 55.019-46.96 35.984a20 20 0 00-7.545 19.274 149.029 149.029 0 010 50.699 20 20 0 007.545 19.274l46.96 35.984-32.47 55.019z"/></svg>