<svg fill="#419bd2" xmlns="http://www.w3.org/2000/svg" viewBox="0 0 511.999 511.999"><path d="M501.977 374.454L312.301 67.937c-12.148-19.656-33.196-31.389-56.302-31.389s-44.153 11.734-56.302 31.389l.006-.009L10.017 374.463c-12.8 20.708-13.364 45.766-1.51 67.03 11.854 21.264 33.466 33.958 57.811 33.958h379.364c24.345 0 45.956-12.694 57.81-33.958 11.855-21.264 11.291-46.322-1.515-67.039zm-33.414 47.565c-4.693 8.416-13.246 13.44-22.882 13.44H66.318c-9.636 0-18.19-5.024-22.882-13.44s-4.469-18.335.592-26.521L233.71 88.973l.006-.009c4.88-7.896 13.002-12.424 22.284-12.424 9.282 0 17.404 4.528 22.29 12.432l189.675 306.517c5.067 8.195 5.291 18.114.598 26.53z"/><path d="M236.005 360.477h39.991v39.991h-39.991zm0-196.957h39.991v156.965h-39.991z"/></svg>